<svg width="512" height="512" viewBox="0 0 512 512" fill="none" xmlns="http://www.w3.org/2000/svg">
<g clip-path="url(#clip0_1_35)">
<rect width="512" height="512" rx="100" fill="#7E41FF"/>
<path fill-rule="evenodd" clip-rule="evenodd" d="M310.142 281.858L284.284 256H256V284.284L327.566 355.85L355.85 327.566L339.424 311.14C348.343 297.645 353.913 282.099 355.518 265.801C357.786 242.777 352 219.679 339.147 200.443C326.293 181.206 307.168 167.022 285.028 160.306C262.889 153.59 239.106 154.758 217.731 163.612C196.357 172.466 178.714 188.457 167.808 208.86C156.902 229.264 153.408 252.818 157.921 275.509C162.435 298.2 174.677 318.624 192.561 333.301C210.444 347.978 232.864 356 256 356V316C242.118 316 228.667 311.187 217.936 302.38C207.206 293.574 199.861 281.32 197.153 267.705C194.445 254.091 196.541 239.958 203.085 227.716C209.628 215.474 220.214 205.879 233.039 200.567C245.863 195.255 260.133 194.554 273.417 198.584C286.7 202.613 298.176 211.124 305.888 222.666C313.6 234.207 317.071 248.066 315.711 261.881C315.023 268.864 313.122 275.618 310.142 281.858Z" fill="white"/>
<path d="M374 327.853L474.061 227.792L502.345 256.076L402.284 356.137L374 327.853Z" fill="white"/>
<path d="M402.284 156L502.351 256.067L474.067 284.351L374 184.284L402.284 156Z" fill="white"/>
<path d="M138 327.735L37.94 227.743L9.65602 256.008L109.716 356L138 327.735Z" fill="white"/>
<path d="M109.716 156L9.65002 255.998L37.934 284.263L138 184.265L109.716 156Z" fill="white"/>
</g>
<defs>
<clipPath id="clip0_1_35">
<rect width="512" height="512" fill="white"/>
</clipPath>
</defs>
</svg>
