<svg width="512" height="512" viewBox="0 0 512 512" fill="none" xmlns="http://www.w3.org/2000/svg">
<g clip-path="url(#clip0_1_8)">
<path fill-rule="evenodd" clip-rule="evenodd" d="M312.262 282.788L285.392 255.917H255.999V285.309L330.368 359.679L359.761 330.286L342.691 313.217C351.96 299.193 357.748 283.038 359.416 266.102C361.772 242.177 355.76 218.174 342.403 198.184C329.046 178.194 309.172 163.454 286.165 156.475C263.158 149.496 238.444 150.71 216.232 159.91C194.02 169.111 175.686 185.728 164.353 206.931C153.02 228.134 149.389 252.61 154.079 276.19C158.769 299.77 171.491 320.994 190.075 336.246C208.659 351.498 231.958 359.834 255.999 359.834V318.267C241.574 318.267 227.596 313.266 216.445 304.114C205.294 294.963 197.661 282.229 194.847 268.081C192.033 253.933 194.211 239.247 201.011 226.525C207.811 213.804 218.812 203.833 232.139 198.313C245.466 192.793 260.295 192.064 274.098 196.252C287.902 200.439 299.827 209.283 307.841 221.277C315.855 233.271 319.463 247.673 318.049 262.028C317.335 269.285 315.359 276.303 312.262 282.788Z" fill="#7E41FF"/>
</g>
<path d="M378.621 330.584L482.602 226.604L511.994 255.996L408.014 359.976L378.621 330.584Z" fill="#7E41FF"/>
<path d="M408.014 152L512 255.986L482.608 285.379L378.621 181.392L408.014 152Z" fill="#7E41FF"/>
<path d="M133.377 330.462L29.3981 226.553L0.00622559 255.925L103.986 359.834L133.377 330.462Z" fill="#7E41FF"/>
<path d="M103.986 152L0 255.915L29.3919 285.287L133.377 181.372L103.986 152Z" fill="#7E41FF"/>
<defs>
<clipPath id="clip0_1_8">
<rect width="207.834" height="207.834" fill="white" transform="translate(152.082 152)"/>
</clipPath>
</defs>
</svg>
